<?xml version="1.0" encoding="UTF-8" ?>
<!DOCTYPE svg PUBLIC "-//W3C//DTD SVG 1.1//EN" "http://www.w3.org/Graphics/SVG/1.1/DTD/svg11.dtd">
<svg width="280pt" height="221pt" viewBox="0 0 280 221" version="1.1" xmlns="http://www.w3.org/2000/svg">
<g id="#0f0b46ff">
</g>
<g id="#fd2e3cff">
<path fill="#fd2e3c" opacity="1.00" d=" M 50.66 53.68 C 57.50 47.61 68.79 48.43 75.08 54.94 C 88.08 67.93 101.23 80.78 114.14 93.87 C 120.21 100.46 126.66 106.67 132.96 113.04 C 140.53 121.13 149.15 128.19 156.32 136.66 C 159.88 141.39 161.44 147.90 159.54 153.61 C 157.20 162.06 148.98 168.98 140.00 168.48 C 134.31 168.71 129.05 165.81 125.14 161.86 C 115.62 152.38 106.09 142.90 96.68 133.31 C 94.76 131.60 92.87 129.10 90.00 129.38 C 86.89 129.02 84.07 131.79 84.51 134.93 C 84.52 145.96 84.41 156.99 84.59 168.02 C 74.09 168.89 63.52 168.14 53.00 168.43 C 50.26 168.20 46.84 169.08 44.68 166.95 C 44.41 165.33 44.40 163.67 44.37 162.03 C 44.46 130.69 44.37 99.34 44.42 68.00 C 44.29 62.62 46.31 57.04 50.66 53.68 Z" />
<path fill="#fd2e3c" opacity="1.00" d=" M 128.40 53.37 C 134.53 48.65 143.38 48.33 150.17 51.79 C 155.08 54.35 158.34 58.97 162.27 62.71 C 171.53 71.62 180.50 80.83 189.42 90.08 C 189.57 78.38 189.52 66.68 189.49 54.98 C 189.60 53.37 189.34 51.63 190.15 50.16 C 191.97 49.34 194.04 49.63 195.99 49.54 C 205.67 49.65 215.36 49.53 225.05 49.59 C 226.74 49.62 229.20 49.88 229.40 52.03 C 229.84 59.34 229.44 66.68 229.57 74.00 C 229.42 79.25 230.10 84.58 228.93 89.75 C 216.25 89.68 203.55 89.36 190.88 89.98 C 193.39 93.77 196.63 96.97 199.82 100.18 C 207.09 107.24 214.24 114.42 221.36 121.63 C 225.85 125.94 229.12 131.66 229.48 137.97 C 229.75 146.31 229.45 154.67 229.60 163.02 C 229.31 164.73 230.26 167.60 227.99 168.22 C 225.00 168.61 221.99 168.40 219.00 168.42 C 209.14 168.17 199.24 168.87 189.41 168.02 C 189.35 162.08 190.06 156.02 188.90 150.17 C 187.62 144.85 183.69 140.80 179.89 137.11 C 164.38 121.62 148.89 106.11 133.39 90.61 C 128.69 85.85 123.06 81.43 120.95 74.80 C 119.07 67.09 121.57 57.91 128.40 53.37 Z" />
</g>
</svg>
